<svg width="40" height="40" viewBox="0 0 40 40" fill="none" xmlns="http://www.w3.org/2000/svg">
<g clip-path="url(#clip0_10_51)">
<g clip-path="url(#clip1_10_51)">
<path fill-rule="evenodd" clip-rule="evenodd" d="M21.2078 17.1195L24.6297 29.8867L19.7555 29.6852L17.0891 19.7305L21.2078 17.1195ZM18.7539 30.8563L15.4273 31.7485L16.7359 36.6313C16.8289 36.9727 17.1812 37.1781 17.5242 37.0875L19.6078 36.5274C19.9492 36.4367 20.1523 36.082 20.0617 35.7414L18.7539 30.8563ZM15.9633 20.443L11.9641 21.5149C10.1523 22 8.93906 23.6344 8.89688 25.4258L7.21797 25.875C6.70859 26.0102 6.40547 26.5375 6.54062 27.0445L6.96328 28.6235C7.10078 29.1305 7.62734 29.4344 8.13516 29.2992L9.81406 28.85C10.7461 30.3781 12.6133 31.1867 14.4273 30.7016L18.4266 29.6297L15.9633 20.443ZM29.0867 19.6641L28.1898 19.9055L29.2836 23.9828L30.1805 23.7438C31.3008 23.443 31.9719 22.2797 31.6734 21.157C31.3727 20.0359 30.2102 19.3649 29.0867 19.6641ZM25.3773 14.3133C25.1297 13.3875 24.168 12.832 23.2422 13.0797C22.3164 13.3274 21.7625 14.2891 22.0109 15.2149L26.2766 31.1352C26.5242 32.061 27.4859 32.6149 28.4117 32.3664C29.3375 32.118 29.8914 31.157 29.643 30.2313L25.3773 14.3133ZM40.9789 18.6649C40.8883 18.3258 40.5406 18.1242 40.2016 18.2156L35.3094 19.5266C34.9703 19.6172 34.7687 19.9649 34.8602 20.3016C34.9508 20.6406 35.2984 20.8422 35.6352 20.7508L40.5297 19.4399C40.8688 19.3492 41.068 19.0016 40.9789 18.6649ZM36.3797 11.707C36.132 11.4594 35.7289 11.4594 35.4805 11.707L31.8992 15.2883C31.6516 15.5359 31.6516 15.9375 31.8992 16.1852C32.1469 16.4328 32.5484 16.4328 32.7961 16.1852L36.3789 12.6039C36.6273 12.3555 36.6273 11.9547 36.3797 11.707ZM40.025 26.2125L35.1328 24.9016C34.7938 24.8109 34.4461 25.0125 34.3555 25.3508C34.2648 25.6875 34.4664 26.0352 34.8047 26.1258L39.6969 27.4367C40.0359 27.5274 40.3836 27.3258 40.4742 26.9875C40.5648 26.6508 40.3633 26.3031 40.025 26.2125ZM8.70391 12.7609H2.33047C1.6 12.7609 1 12.1633 1 11.432V4.67579C1 3.94298 1.6 3.34454 2.33125 3.34454H14.2055C14.9383 3.34454 15.5367 3.9422 15.5367 4.67579V11.4328C15.5367 12.1633 14.9391 12.7617 14.2055 12.7617H11.8555C11.7781 12.7617 11.7117 12.793 11.6625 12.85C11.6117 12.9078 11.5891 12.9781 11.6008 13.0539L11.9422 15.5211C11.9578 15.6344 11.9 15.7406 11.7961 15.7891C11.6945 15.8375 11.575 15.8133 11.4992 15.7289L8.89453 12.8477C8.84609 12.7899 8.77969 12.7609 8.70391 12.7609ZM4.01406 6.63751C4.01406 6.98751 4.3 7.27111 4.65 7.27111H11.8875C12.2398 7.27111 12.5234 6.98751 12.5234 6.63751C12.5234 6.28517 12.2398 6.00157 11.8875 6.00157H4.64922C4.29922 6.00236 4.01406 6.28595 4.01406 6.63751ZM8.49609 10.1039C8.84609 10.1039 9.12969 9.82032 9.12969 9.46798C9.12969 9.11798 8.84609 8.83439 8.49609 8.83439H4.64922C4.29922 8.83439 4.01328 9.11798 4.01328 9.46798C4.01328 9.82032 4.29922 10.1039 4.64922 10.1039H8.49609ZM26.8219 8.17501C26.9789 8.33204 27.2336 8.33204 27.3914 8.17501L31.6211 3.94532C32.768 2.79845 32.768 0.920325 31.6211 -0.22655C30.2703 -1.57733 28.6383 -1.24061 27.3711 -0.131238C27.218 0.00157452 26.9945 0.00157452 26.8422 -0.131238C25.5734 -1.24061 23.9414 -1.57733 22.5922 -0.22655C21.4453 0.920325 21.4453 2.79845 22.5922 3.94532L26.8219 8.17501Z" fill="black"/>
</g>
</g>
<defs>
<clipPath id="clip0_10_51">
<rect width="40" height="40" fill="white"/>
</clipPath>
<clipPath id="clip1_10_51">
<rect width="40" height="40" fill="white" transform="translate(1 -2)"/>
</clipPath>
</defs>
</svg>
