<svg width="40" height="40" viewBox="0 0 40 40" fill="none" xmlns="http://www.w3.org/2000/svg">
<path d="M22.5 23.75C22.5 25.9587 20.9587 27.5 18.75 27.5C16.6825 27.5 15 25.8175 15 23.75C15 21.6825 16.6825 20 18.75 20C20.8175 20 22.5 21.6825 22.5 23.75ZM2.5 10V6.25C2.5 4.1825 4.1825 2.5 6.25 2.5H33.75C35.8175 2.5 37.5 4.1825 37.5 6.25V10H2.5ZM30 6.25C30 6.94 30.56 7.5 31.25 7.5C31.94 7.5 32.5 6.94 32.5 6.25C32.5 5.56 31.94 5 31.25 5C30.56 5 30 5.56 30 6.25ZM25 6.25C25 6.94 25.56 7.5 26.25 7.5C26.94 7.5 27.5 6.94 27.5 6.25C27.5 5.56 26.94 5 26.25 5C25.56 5 25 5.56 25 6.25ZM37.5 12.5V33.75C37.5 35.8175 35.8175 37.5 33.75 37.5H6.25C4.1825 37.5 2.5 35.8175 2.5 33.75V12.5H37.5ZM25.8838 30.3662L23.4437 27.9275C24.41 26.835 25 25.3937 25 23.75C25 20.3037 22.1963 17.5 18.75 17.5C15.3038 17.5 12.5 20.3037 12.5 23.75C12.5 27.1963 15.3038 30 18.75 30C19.7162 30 20.6088 29.7887 21.41 29.4287L24.1162 32.1338C24.36 32.3775 24.68 32.5 25 32.5C25.32 32.5 25.64 32.3775 25.8838 32.1338C26.3725 31.645 26.3725 30.8537 25.8838 30.3662Z" fill="black"/>
</svg>
