<svg width="40" height="40" viewBox="0 0 40 40" fill="none" xmlns="http://www.w3.org/2000/svg">
<g clip-path="url(#clip0_10_56)">
<path fill-rule="evenodd" clip-rule="evenodd" d="M15.928 1.91296H21.9646V4.94187C23.9634 5.34031 25.8219 6.12671 27.4588 7.21906L29.6016 5.07632L33.8701 9.34492L31.7273 11.4877C32.8198 13.1245 33.6058 14.9833 34.0045 16.9817H37.0334V23.0184H34.0045C33.9849 23.1161 33.9645 23.2134 33.9431 23.3105C33.4373 23.2124 32.915 23.1605 32.3803 23.1605C31.4484 23.1605 30.553 23.3169 29.7188 23.6045C30.1329 22.4229 30.3587 21.1527 30.3587 19.8296C30.3587 13.5267 25.2493 8.41718 18.9463 8.41718C12.6434 8.41718 7.53406 13.5266 7.53406 19.8294C7.53406 26.1323 12.6434 31.2419 18.9464 31.2419C20.8976 31.2419 22.7341 30.7518 24.3404 29.8887C24.2573 30.3555 24.2141 30.8361 24.2141 31.3268C24.2141 32.3467 24.4016 33.3227 24.743 34.2228C23.8555 34.5849 22.9262 34.8664 21.9646 35.0582V38.0869H15.928V35.0582C13.9295 34.6598 12.0709 33.8735 10.4338 32.7811L8.29117 34.9237L4.02266 30.6552L6.16531 28.5127C5.07266 26.8757 4.28664 25.0169 3.88813 23.0183H0.859375V16.9816H3.88813C4.28656 14.983 5.07297 13.1245 6.16531 11.4874L4.02266 9.34476L8.29117 5.07624L10.4338 7.2189C12.0708 6.1264 13.9296 5.34039 15.928 4.94187V1.91296ZM32.3804 24.5666C28.6469 24.5666 25.6203 27.5932 25.6203 31.3268C25.6203 35.0603 28.6469 38.0869 32.3804 38.0869C36.1141 38.0869 39.1406 35.0603 39.1406 31.3268C39.1406 27.5932 36.1141 24.5666 32.3804 24.5666ZM34.9402 28.2439L30.9356 32.2485L29.5689 30.5287C29.2327 30.1059 28.6175 30.0355 28.1947 30.3717C27.7717 30.7079 27.7015 31.3232 28.0377 31.746L30.0486 34.2769C30.3965 34.775 31.1126 34.8431 31.5459 34.4098L36.3259 29.6298C36.7084 29.2471 36.7084 28.6266 36.3259 28.2439C35.9433 27.8613 35.3229 27.8613 34.9402 28.2439ZM18.9464 11.0747C14.1112 11.0747 10.1915 14.9944 10.1915 19.8295C10.1915 24.6647 14.1112 28.5844 18.9464 28.5844C23.7815 28.5844 27.7012 24.6647 27.7012 19.8295C27.7012 14.9944 23.7814 11.0747 18.9464 11.0747ZM19.6495 18.8466V13.5575C19.6495 13.1691 19.3348 12.8544 18.9464 12.8544C18.558 12.8544 18.2433 13.1691 18.2433 13.5575V19.5959L14.6634 21.6627C14.3282 21.8569 14.2139 22.2861 14.408 22.6213C14.602 22.9566 15.0313 23.0709 15.3666 22.8768L18.2958 21.1856C18.4011 21.4414 18.6527 21.6216 18.9464 21.6216C19.3348 21.6216 19.6495 21.3068 19.6495 20.9184V20.4025L20.0905 20.1479C20.4258 19.9552 20.5414 19.5273 20.3487 19.192C20.203 18.9383 19.9225 18.8104 19.6495 18.8466Z" fill="black"/>
</g>
<defs>
<clipPath id="clip0_10_56">
<rect width="40" height="40" fill="white"/>
</clipPath>
</defs>
</svg>
