<svg width="40" height="40" viewBox="0 0 40 40" fill="none" xmlns="http://www.w3.org/2000/svg">
<g clip-path="url(#clip0_14_131)">
<path d="M20.0727 25.2523C17.307 20.4578 18.9547 14.3055 23.7492 11.5398C25.4836 10.5367 27.3945 10.1133 29.2594 10.2086V2.80078C29.2594 2.12109 28.7039 1.5625 28.0234 1.5625H1.23594C0.55625 1.56328 0 2.12109 0 2.80078V26.6734C0 27.3531 0.555469 27.9094 1.23594 27.9094H22.2984C21.4305 27.1812 20.6727 26.2906 20.0727 25.2523ZM22.1836 3.70937H26.4867C26.8414 3.70937 27.1313 3.99922 27.1313 4.35391C27.1313 4.71016 26.8414 5.00078 26.4867 5.00078H22.1836C21.8273 5.00078 21.5391 4.71094 21.5391 4.35391C21.5391 3.99922 21.8266 3.70937 22.1836 3.70937ZM22.1836 7.31016H26.4867C26.8414 7.31016 27.1313 7.6 27.1313 7.95469C27.1313 8.31094 26.8414 8.60156 26.4867 8.60156H22.1836C21.8273 8.60156 21.5391 8.31172 21.5391 7.95469C21.5391 7.6 21.8266 7.31016 22.1836 7.31016ZM9.46094 23.1156V25.0797C8.32734 24.9359 7.30859 24.4133 6.53984 23.6422C5.76953 22.8734 5.24844 21.857 5.10234 20.7211H7.1375C7.26172 21.3016 7.55391 21.8195 7.95703 22.225C8.3625 22.6305 8.88047 22.9203 9.46094 23.0469V23.1156ZM9.46094 17.107C8.88047 17.2336 8.3625 17.5234 7.95703 17.9289C7.55391 18.3344 7.26172 18.8523 7.1375 19.4328H7.06875H5.10234C5.24844 18.2969 5.76875 17.2805 6.53984 16.5117C7.30859 15.7414 8.32734 15.2188 9.46094 15.0742V17.107ZM13.6727 23.6422C12.9023 24.4125 11.8852 24.9352 10.7516 25.0797V23.0469C11.332 22.9203 11.85 22.6305 12.2531 22.225C12.6586 21.8195 12.9484 21.3016 13.075 20.7211H15.1078C14.9641 21.857 14.4414 22.8742 13.6727 23.6422ZM13.075 19.4328C12.9484 18.8523 12.6586 18.3344 12.2531 17.9289C11.85 17.5234 11.332 17.2336 10.7516 17.107V15.0742C11.8852 15.218 12.9016 15.7406 13.6727 16.5117C14.4414 17.2805 14.9641 18.2969 15.1078 19.4328H13.075ZM17.4375 13.1852H2.775C2.41875 13.1852 2.13047 12.8969 2.13047 12.5406C2.13047 12.1844 2.41875 11.8961 2.775 11.8961H4.96953V7.63359C4.96953 7.50078 5.07812 7.39219 5.21094 7.39219H6.77891C6.91172 7.39219 7.02266 7.50078 7.02266 7.63359V11.8969H9.07969V4.59687C9.07969 4.46172 9.18828 4.35313 9.32109 4.35313H10.8891C11.0242 4.35313 11.1328 4.46172 11.1328 4.59687V11.8961H13.1898V6.43516C13.1898 6.3 13.2984 6.19141 13.4312 6.19141H14.9992C15.1344 6.19141 15.243 6.3 15.243 6.43516V11.8961H17.4375C17.7937 11.8961 18.082 12.1836 18.082 12.5406C18.082 12.8977 17.7937 13.1852 17.4375 13.1852ZM39.2445 38.2367C38.525 38.6508 37.5945 38.4031 37.1805 37.6828L33.325 31.0063C32.6141 31.2938 31.7727 31.0219 31.3781 30.3375L31.1719 29.9813C32.0687 29.7602 32.9477 29.4117 33.7875 28.9273C34.6711 28.418 35.4484 27.7914 36.1109 27.0805L36.3391 27.475C36.7336 28.157 36.5492 29.0227 35.9445 29.4945L39.7977 36.1711C40.2141 36.8898 39.9664 37.8203 39.2445 38.2367ZM36.343 15.8578C33.9289 11.6742 28.5766 10.2391 24.393 12.6555C20.2078 15.0719 18.775 20.4219 21.1906 24.6078C23.607 28.7914 28.957 30.2266 33.1406 27.8102C37.3266 25.3937 38.7594 20.0438 36.343 15.8578ZM23.2836 23.3984C21.5359 20.3711 22.5727 16.4977 25.6023 14.7508C28.6297 13.0016 32.5031 14.0398 34.25 17.0672C35.9977 20.0945 34.9609 23.968 31.9336 25.7148C28.9047 27.4648 25.0336 26.4258 23.2836 23.3984Z" fill="white"/>
</g>
<defs>
<clipPath id="clip0_14_131">
<rect width="40" height="40" fill="white"/>
</clipPath>
</defs>
</svg>
