<svg width="40" height="40" viewBox="0 0 40 40" fill="none" xmlns="http://www.w3.org/2000/svg">
<path d="M31.6667 2.08337H8.33333C7.11776 2.08337 5.95197 2.56626 5.09243 3.4258C4.23289 4.28534 3.75 5.45113 3.75 6.66671V33.3334C3.75 34.549 4.23289 35.7147 5.09243 36.5743C5.95197 37.4338 7.11776 37.9167 8.33333 37.9167H31.6667C32.8822 37.9167 34.048 37.4338 34.9076 36.5743C35.7671 35.7147 36.25 34.549 36.25 33.3334V6.66671C36.25 5.45113 35.7671 4.28534 34.9076 3.4258C34.048 2.56626 32.8822 2.08337 31.6667 2.08337ZM17.55 27.9667L13.3333 32.1334C13.099 32.3675 12.7813 32.4989 12.45 32.4989C12.1187 32.4989 11.801 32.3675 11.5667 32.1334L9.06667 29.6334C8.84587 29.3964 8.72566 29.083 8.73137 28.7592C8.73709 28.4353 8.86828 28.1264 9.0973 27.8973C9.32632 27.6683 9.63529 27.5371 9.95913 27.5314C10.283 27.5257 10.5964 27.6459 10.8333 27.8667L12.5 29.5334L15.8333 26.2C15.9478 26.0772 16.0858 25.9787 16.2391 25.9104C16.3924 25.8421 16.558 25.8053 16.7258 25.8024C16.8936 25.7994 17.0603 25.8303 17.216 25.8932C17.3716 25.956 17.513 26.0496 17.6317 26.1683C17.7504 26.287 17.844 26.4284 17.9069 26.584C17.9697 26.7397 18.0006 26.9064 17.9977 27.0742C17.9947 27.2421 17.958 27.4076 17.8896 27.5609C17.8213 27.7143 17.7228 27.8523 17.6 27.9667H17.55ZM17.55 18.8L13.3333 22.9667C13.099 23.2008 12.7813 23.3323 12.45 23.3323C12.1187 23.3323 11.801 23.2008 11.5667 22.9667L9.06667 20.4667C8.84587 20.2297 8.72566 19.9163 8.73137 19.5925C8.73709 19.2687 8.86828 18.9597 9.0973 18.7307C9.32632 18.5016 9.63529 18.3705 9.95913 18.3647C10.283 18.359 10.5964 18.4792 10.8333 18.7L12.5 20.3667L15.8333 17.0334C16.0703 16.8126 16.3837 16.6924 16.7075 16.6981C17.0314 16.7038 17.3403 16.835 17.5694 17.064C17.7984 17.293 17.9296 17.602 17.9353 17.9258C17.941 18.2497 17.8208 18.5631 17.6 18.8H17.55ZM17.55 9.63337L13.3333 13.8C13.1042 14.005 12.8075 14.1183 12.5 14.1183C12.1925 14.1183 11.8958 14.005 11.6667 13.8L9.16667 11.3C8.99355 11.0618 8.91013 10.77 8.93114 10.4762C8.95215 10.1824 9.07622 9.90547 9.28148 9.69423C9.48674 9.48299 9.76 9.35102 10.0531 9.32159C10.3461 9.29216 10.6402 9.36717 10.8833 9.53337L12.55 11.2L15.8833 7.86671C16.1203 7.64591 16.4337 7.5257 16.7575 7.53142C17.0814 7.53713 17.3903 7.66832 17.6194 7.89734C17.8484 8.12636 17.9796 8.43533 17.9853 8.75917C17.991 9.08301 17.8708 9.39642 17.65 9.63337H17.55ZM30 30.8334H21.6667C21.3351 30.8334 21.0172 30.7017 20.7828 30.4673C20.5484 30.2328 20.4167 29.9149 20.4167 29.5834C20.4167 29.2519 20.5484 28.9339 20.7828 28.6995C21.0172 28.4651 21.3351 28.3334 21.6667 28.3334H30C30.3315 28.3334 30.6495 28.4651 30.8839 28.6995C31.1183 28.9339 31.25 29.2519 31.25 29.5834C31.25 29.9149 31.1183 30.2328 30.8839 30.4673C30.6495 30.7017 30.3315 30.8334 30 30.8334ZM30 21.6667H21.6667C21.3351 21.6667 21.0172 21.535 20.7828 21.3006C20.5484 21.0662 20.4167 20.7482 20.4167 20.4167C20.4167 20.0852 20.5484 19.7672 20.7828 19.5328C21.0172 19.2984 21.3351 19.1667 21.6667 19.1667H30C30.3315 19.1667 30.6495 19.2984 30.8839 19.5328C31.1183 19.7672 31.25 20.0852 31.25 20.4167C31.25 20.7482 31.1183 21.0662 30.8839 21.3006C30.6495 21.535 30.3315 21.6667 30 21.6667ZM30 12.5H21.6667C21.3351 12.5 21.0172 12.3683 20.7828 12.1339C20.5484 11.8995 20.4167 11.5816 20.4167 11.25C20.4167 10.9185 20.5484 10.6006 20.7828 10.3662C21.0172 10.1317 21.3351 10 21.6667 10H30C30.3315 10 30.6495 10.1317 30.8839 10.3662C31.1183 10.6006 31.25 10.9185 31.25 11.25C31.25 11.5816 31.1183 11.8995 30.8839 12.1339C30.6495 12.3683 30.3315 12.5 30 12.5Z" fill="white"/>
</svg>
